<?xml version="1.0" encoding="utf-8"?>
<!-- Generator: Adobe Illustrator 19.1.0, SVG Export Plug-In . SVG Version: 6.00 Build 0)  -->
<svg version="1.1" id="Layer_1" xmlns="http://www.w3.org/2000/svg" xmlns:xlink="http://www.w3.org/1999/xlink" x="0px" y="0px"
	 viewBox="0 0 78.8 78.4" style="enable-background:new 0 0 78.8 78.4;" xml:space="preserve">
<style type="text/css">
	.st0{fill:#FFFFFF;}
</style>
<g>
	<path class="st0" d="M39.2,24.4c-8.2,0-14.8,6.6-14.8,14.8S31,54,39.2,54S54,47.3,54,39.2S47.4,24.4,39.2,24.4z M39.2,44.4
		c-2.9,0-5.2-2.3-5.2-5.2c0-2.9,2.3-5.2,5.2-5.2c2.9,0,5.2,2.3,5.2,5.2C44.4,42,42.1,44.4,39.2,44.4z"/>
	<path class="st0" d="M76.6,46.3V32h-8.9c-0.7-2.8-1.8-5.5-3.3-7.9l6.3-6.3L60.6,7.7L54.3,14c-2.4-1.5-5.1-2.6-7.9-3.3V1.8H32.1v8.9
		c-2.8,0.7-5.5,1.8-7.9,3.3l-6.3-6.3L7.7,17.8l6.3,6.3c-1.5,2.4-2.6,5.1-3.3,7.9H1.8v14.3h8.9c0.7,2.8,1.8,5.5,3.3,7.9l-6.3,6.3
		l10.1,10.1l6.3-6.3c2.4,1.5,5.1,2.6,7.9,3.3v8.9h14.3v-8.9c2.8-0.7,5.5-1.8,7.9-3.3l6.3,6.3l10.1-10.1l-6.3-6.3
		c1.5-2.4,2.6-5.1,3.3-7.9H76.6z M39.2,57.6c-10.1,0-18.4-8.3-18.4-18.4s8.3-18.4,18.4-18.4S57.6,29,57.6,39.2S49.4,57.6,39.2,57.6z
		"/>
</g>
</svg>
