<?xml version="1.0" encoding="utf-8"?>
<!-- Generator: Adobe Illustrator 19.1.0, SVG Export Plug-In . SVG Version: 6.00 Build 0)  -->
<svg version="1.1" id="Layer_1" xmlns="http://www.w3.org/2000/svg" xmlns:xlink="http://www.w3.org/1999/xlink" x="0px" y="0px"
	 viewBox="0 0 96.5 92.3" style="enable-background:new 0 0 96.5 92.3;" xml:space="preserve">
<style type="text/css">
	.st0{fill:#FFFFFF;}
</style>
<g>
	<circle class="st0" cx="48.3" cy="46.2" r="23.9"/>
	<path class="st0" d="M48.3,75.6c-16.2,0-29.4-13.2-29.4-29.4S32,16.8,48.3,16.8S77.6,30,77.6,46.2S64.5,75.6,48.3,75.6z M48.3,27.8
		c-10.1,0-18.4,8.3-18.4,18.4s8.3,18.4,18.4,18.4s18.4-8.3,18.4-18.4S58.4,27.8,48.3,27.8z"/>
</g>
<g>
	<circle class="st0" cx="48.3" cy="46.2" r="11.4"/>
	<path class="st0" d="M48.3,63.1c-9.3,0-16.9-7.6-16.9-16.9s7.6-16.9,16.9-16.9s16.9,7.6,16.9,16.9S57.6,63.1,48.3,63.1z M48.3,40.3
		c-3.3,0-5.9,2.7-5.9,5.9s2.7,5.9,5.9,5.9s5.9-2.7,5.9-5.9S51.5,40.3,48.3,40.3z"/>
</g>
<g>
	<g>
		<rect x="10.9" y="39.1" class="st0" width="11.1" height="14.3"/>
	</g>
	<g>
		<rect x="74.5" y="39.1" class="st0" width="11.1" height="14.3"/>
	</g>
</g>
<g>
	<g>
		
			<rect x="18.6" y="18.1" transform="matrix(0.7071 -0.7071 0.7071 0.7071 -9.2193 25.1555)" class="st0" width="14.3" height="11.1"/>
	</g>
	<g>
		
			<rect x="63.6" y="63.1" transform="matrix(0.7071 -0.7071 0.7071 0.7071 -27.8546 70.1451)" class="st0" width="14.3" height="11.1"/>
	</g>
</g>
<g>
	<g>
		
			<rect x="18.6" y="63.1" transform="matrix(-0.7071 -0.7071 0.7071 -0.7071 -4.6078 135.4835)" class="st0" width="14.3" height="11.1"/>
	</g>
	<g>
		
			<rect x="63.6" y="18.1" transform="matrix(-0.7071 -0.7071 0.7071 -0.7071 104.0068 90.4939)" class="st0" width="14.3" height="11.1"/>
	</g>
</g>
<g>
	<g>
		<rect x="41.1" y="72.4" class="st0" width="14.3" height="11.1"/>
	</g>
	<g>
		<rect x="41.1" y="8.8" class="st0" width="14.3" height="11.1"/>
	</g>
</g>
</svg>
